<svg id="Layer_1" data-name="Layer 1" xmlns="http://www.w3.org/2000/svg" xmlns:xlink="http://www.w3.org/1999/xlink" width="782" height="980" viewBox="0 0 782 980">
  <defs>
    <style>
      .cls-1 {
        fill: url(#linear-gradient);
      }

      .cls-2 {
        fill: #6ac1e5;
      }

      .cls-3 {
        fill: #ef4822;
      }
    </style>
    <linearGradient id="linear-gradient" x1="325" y1="547.71" x2="1075" y2="547.71" gradientUnits="userSpaceOnUse">
      <stop offset="0" stop-color="#6ac1e5"/>
      <stop offset="0.07" stop-color="#6cb9e6"/>
      <stop offset="0.19" stop-color="#70a1e9"/>
      <stop offset="0.34" stop-color="#777ced"/>
      <stop offset="0.51" stop-color="#8048f3"/>
      <stop offset="0.58" stop-color="#9a48c2"/>
      <stop offset="0.65" stop-color="#b44891"/>
      <stop offset="0.73" stop-color="#c94869"/>
      <stop offset="0.8" stop-color="#da484a"/>
      <stop offset="0.87" stop-color="#e54834"/>
      <stop offset="0.94" stop-color="#ed4827"/>
      <stop offset="1" stop-color="#ef4822"/>
    </linearGradient>
  </defs>
  <title>favicon</title>
  <g>
    <path class="cls-1" d="M925,875c-8.73-3.68-12.47-10.25-12.06-19.69.33-7.65.31-15.34,0-23a63.12,63.12,0,0,1,8-33.58c16.14-29.3,32.18-58.67,48.63-87.8,22.63-40.05,43.6-80.84,58.91-124.36,14.52-41.27,17.42-83.21,7.5-125.88-8.32-35.75-28.68-64-55.35-88.33-17.72-16.14-37.74-29.06-58.17-41.3-39.27-23.54-78.73-46.76-118.17-70-4.13-2.44-8.68-4.18-13-6.28-2.81-1.36-5.1-.91-7,1.64-9.74,13-17.06,27-18.68,43.47A26.91,26.91,0,0,0,771.54,320a285.28,285.28,0,0,0,19.83,21.74q59,58.37,118.19,116.5c3.43,3.38,6.43,7.21,9.55,10.9,11,13,11.63,27.49,5.2,42.56-5.82,13.65-15.24,24.95-24.67,36.2-20.41,24.34-43.83,45.69-67.16,67.08C781,662.19,729,708.8,677.83,756.3c-15.31,14.21-32.43,20.6-52.84,20.53-44.67-.15-89.34.47-134-.12-33.13-.44-56.69-18.14-65.4-47.28a59.42,59.42,0,0,1,1.82-40.59l4.36-10.68c-23-3.28-39.72-15.31-50.42-35.42-10.89-20.45-9.37-41,.92-61.85-3.65-1.13-6.79-2-9.87-3.08-23.49-8.13-39.94-23.39-45.7-48-4.16-17.75-.6-34.87,9.26-50.22a36.61,36.61,0,0,1,11.43-10.75c5.39-3.34,11.41-2.16,16.41,1.63S370,480,368.5,485.8A40.73,40.73,0,0,1,364,496.26c-11.06,18.89-6.34,38.22,12.41,49.42,1.56.93,3.79,1,5.72,1q94,.93,188,1.8c10.13.1,17.9,12,14.34,21.58-2.48,6.7-5.73,9-12.81,9.09q-61.74.91-123.47,1.9c-6,.11-12.14.07-17.9,1.43-19.72,4.67-31.33,29.9-17.53,49.76,7,10.09,17.36,13.47,29.09,13.67,23.32.39,46.65,1,70,1,28.32,0,56.64-.56,85-.84a31,31,0,0,0,21.69-8.79c18.37-17.43,36.81-34.79,55-52.42,20.23-19.6,40.19-39.47,60.29-59.2,2-2,4.34-3.65,6.36-5.63,6.7-6.53,12.66-5.74,20.51,1.45,6.26,5.74,6.45,13.17.52,20-5.25,6-10.75,11.86-16.42,17.49q-48.61,48.26-97.39,96.34a135,135,0,0,1-14,12.06c-9.88,7.36-20.38,11.86-33.47,11.82-37.15-.13-74.31.93-111.47,1.73-19.86.42-32.66,12.33-33,30.17s13.63,32.07,33.36,32.67c25.48.77,51,.94,76.48,1,20,.05,40-.79,60-.63,11.11.08,20-3.37,28.31-10.93,38.35-34.87,77.26-69.11,115.62-104q39-35.47,77.11-72c16.78-16,32.09-33.41,44.88-52.86,6.24-9.49,6.41-11.3-1.52-19.45q-35.88-36.92-72.39-73.24c-18.33-18.19-37.22-35.83-55.75-53.82a198.1,198.1,0,0,1-13.66-14.58c-14.82-17.63-17.69-37.87-12.2-59.64,3.44-13.63,8.53-26.69,16.6-38.29a93,93,0,0,1,13-15.1c11.94-11.08,25.85-12.69,40.23-5.67,12.1,5.9,23.87,12.56,35.4,19.52,43,26,86.23,51.74,128.78,78.51,31.13,19.58,57,45,76.12,76.66,15.61,25.81,23.64,54.14,27.36,83.85.62,4.95,1.33,9.88,2,14.81v29c-1.52,9.83-2.62,19.75-4.63,29.47-8.23,39.87-23,77.48-41.89,113.29-21.42,40.58-43.8,80.66-66.71,120.42-11.2,19.43-18.85,39.19-16.46,61.9,1.21,11.46-4.07,18.7-14.31,22.92Z" transform="translate(-293 105)"/>
    <path class="cls-2" d="M541-105c1,.53,2.07,1,3,1.61,5.55,3.43,9.25,7.28,9.15,14.94-.45,35.16-.15,70.32-.27,105.48a11.19,11.19,0,0,0,3.55,8.73C594,63.63,631.34,101.7,668.92,139.52a63.23,63.23,0,0,1,19,43.32c1.05,26.7-11.8,46-34.23,59.51-3.83,2.3-8,4.05-12.55,6.32,1.44,1.69,2.62,3.24,4,4.63q17.29,18,34.65,36c10.3,10.7,17.46,22.95,19.47,38C702.65,353,689,379.93,666,392.11c-4.25,2.25-8.64,4.23-13.48,6.58,1.26,1.41,2.31,2.62,3.41,3.78C665.27,412.4,675,422,684,432.31a63.13,63.13,0,0,1,9.11,70c-12.25,24.21-36.74,38.65-63.07,36.66-13.78-1-26.34-5.81-36.73-15.2s-20.21-18.87-30.37-28.25c-2.75-2.53-5.73-4.82-8.14-6.83-4.79,7.77-8.59,15.36-13.69,21.95-16.5,21.29-43.45,27.85-68.89,20.79-6.62-1.84-13.12-6.13-18.28-10.82-19.21-17.49-38.2-35.25-56.62-53.57q-42.53-42.3-84.12-85.53c-8.44-8.72-16.17-18.26-18.67-30.77-.45-2.25-1-4.47-1.5-6.71V328a13.17,13.17,0,0,0,.88-2.24c4.93-25.37,19-43.12,43.43-52.31,2.26-.85,4.49-1.8,6.8-2.73-1-4.27-1.86-8-2.72-11.71-7.63-32.79,7.39-63,37.86-76.21,3.61-1.56,9.11-2.47,10.23-5.15,1.31-3.16-1.08-7.94-2.07-12C379.79,134.62,394.12,105,423.24,92c3.48-1.56,7.09-2.85,10.68-4.16,2.6-1,3.87-2.16,2.41-5.18-4.75-9.78-5.47-20.31-4.24-30.8C435,27.12,446.92,8.57,470.65-.86c16-6.36,32.49-6,49.59-1.71,0-1.91,0-3.7,0-5.48.32-26.33,1.11-52.66.71-79-.14-9,4.1-13.3,11-16.75.71-.36,1.36-.82,2-1.23Zm89.8,610.37c16.74.31,28.27-6.33,33.27-17.78,5.33-12.23,4.26-23.68-5.4-33.65-2.32-2.39-4.35-5.06-6.69-7.42-43.3-43.88-86.42-87.94-130-131.52-32.64-32.62-65.88-64.64-98.93-96.86a25,25,0,0,0-7.64-5.41c-12.68-5.11-29.81.06-37.65,11-8.53,11.91-7.69,26.83,2.17,38.36,1,1.14,1.95,2.29,3,3.34Q498.89,381.69,614.8,498C620.35,503.56,626.75,505.43,630.8,505.37ZM452,119c-21.73.07-35.53,14.91-34,34.83.65,8.58,5.84,14.4,11.25,20,23.38,24.2,46.67,48.5,70.52,72.23Q557.49,303.52,616,360.22a26.31,26.31,0,0,0,12.42,6.63c16.42,3.33,31.84-6.61,37.47-22.68,3-8.52,2.11-16-3.56-22.9-3.9-4.77-7.51-9.83-11.84-14.18q-89.94-90.28-180-180.46C464.84,121,458.43,118.7,452,119ZM356,302.78c-12.51.67-22.26,7.78-27.88,20-5.23,11.41-3.88,22.46,5,31.88,19.24,20.32,38.17,41,58,60.72C417.76,442,445.07,467.9,472.19,494a24.41,24.41,0,0,0,7.44,4.88c18.06,7.47,38.37-3.13,43.32-22.51,2.28-8.91,1.33-17-5.44-24.06-17.16-17.93-33.73-36.44-51.23-54-29.49-29.63-59.52-58.72-89.33-88C371.53,304.92,364.77,303,356,302.78Zm139.18-277a58.38,58.38,0,0,0-5.8.8C466.55,31.7,454.57,60.18,472.5,79c15.65,16.39,31,33,47.09,49,27.77,27.6,55.9,54.84,84.11,82A25.28,25.28,0,0,0,615,215.77c15.14,3.61,28.78-1.91,36-13.9,7.62-12.66,6-26.05-4.68-38.5-1.62-1.89-3.22-3.83-5-5.6Q579.48,95.91,517.6,34.09C511.73,28.23,504.46,25.84,495.18,25.76Z" transform="translate(-293 105)"/>
    <path class="cls-2" d="M932-105c.81.5,1.6,1,2.44,1.48,6.56,3.38,10.44,7.5,10.4,16.11-.19,42.82.38,85.65.94,128.47a21.21,21.21,0,0,0,3.32,10.51c15.8,24.87,32.92,49,47.66,74.44,31.41,54.23,45.52,113.19,45.37,175.85,0,12.88-12.7,22.63-25.13,14.56-4.44-2.88-5.49-6.93-6-11.41-1.1-10.76-2.12-21.55-2.86-32.34-3.5-50.86-19.08-97.8-45.9-141q-17.92-28.84-37-57C917.7,63.46,913.14,51.78,913.2,38c.17-43.66-.16-87.32-.23-131,0-5.36,4.89-7.06,8.1-9.94,1.07-1,2.61-1.39,3.93-2.07Z" transform="translate(-293 105)"/>
    <path class="cls-3" d="M535,875c-2-1-4.16-2-6.1-3.15-4.18-2.56-7-6.06-7.18-11.23-.51-12.29-1.65-24.58-1.26-36.83.11-3.35,4.3-7.06,7.39-9.71,7.39-6.37,15.92-5.54,21.67,2.24a19.14,19.14,0,0,1,3.16,10.17c.4,10.62,0,21.26.18,31.89.12,8.56-4.93,13.21-11.86,16.62Z" transform="translate(-293 105)"/>
    <path class="cls-3" d="M556.47,25.56C594,63.43,631.34,101.5,668.92,139.32a63.26,63.26,0,0,1,19,43.33c1.05,26.69-11.8,46-34.23,59.5-3.83,2.3-8,4-12.55,6.32,1.44,1.7,2.62,3.24,4,4.64q17.29,18,34.65,36c10.3,10.7,17.46,22.95,19.47,38C702.65,352.8,689,379.73,666,391.91c-4.25,2.25-8.64,4.23-13.48,6.58,1.26,1.41,2.31,2.62,3.41,3.78,9.38,9.93,19.12,19.54,28.08,29.84a63.13,63.13,0,0,1,9.11,70c-12.25,24.21-36.74,38.66-63.07,36.66-13.78-1-26.34-5.8-36.73-15.2s-20.21-18.86-30.37-28.25c-2.75-2.53-5.73-4.81-8.14-6.83-4.79,7.77-8.59,15.36-13.69,22-16.5,21.29-43.45,27.85-68.89,20.79-6.62-1.83-13.12-6.13-18.28-10.82-19.21-17.48-38.2-35.25-56.62-53.57q-42.53-42.29-84.12-85.52C304.73,372.56,297,363,294.5,350.51c-.45-2.24-1-4.47-1.5-6.71v-16a12.85,12.85,0,0,0,.88-2.24c4.93-25.37,19-43.12,43.43-52.31,2.26-.85,4.49-1.79,6.8-2.73-1-4.27-1.86-8-2.72-11.71-7.63-32.78,7.39-63,37.86-76.2,3.61-1.57,9.11-2.48,10.23-5.16,1.31-3.15-1.08-7.93-2.07-12-7.62-31.07,6.71-60.65,35.83-73.73,3.48-1.56,7.09-2.84,10.68-4.16,2.6-.95,3.87-2.16,2.41-5.18-4.75-9.77-5.47-20.31-4.24-30.8C435,26.92,446.92,8.37,470.65-1.06c16-6.36,32.49-6,49.59-1.71m110.56,508c16.74.3,28.27-6.33,33.27-17.79,5.33-12.23,4.26-23.68-5.4-33.65-2.32-2.39-4.35-5.05-6.69-7.42-43.3-43.88-86.42-87.94-130-131.52-32.64-32.62-65.88-64.64-98.93-96.86a25,25,0,0,0-7.64-5.41c-12.68-5.11-29.81.06-37.65,11-8.53,11.91-7.69,26.84,2.17,38.36,1,1.14,1.95,2.29,3,3.35q116,116.24,231.88,232.52C620.35,503.36,626.75,505.23,630.8,505.18ZM452,118.8c-21.73.07-35.53,14.91-34,34.83.65,8.58,5.84,14.4,11.25,20,23.38,24.2,46.67,48.5,70.52,72.23Q557.49,303.34,616,360a26.31,26.31,0,0,0,12.42,6.63C644.83,370,660.25,360,665.88,344c3-8.52,2.11-16-3.56-22.9-3.9-4.77-7.51-9.83-11.84-14.18q-89.94-90.28-180-180.45C464.84,120.76,458.43,118.5,452,118.8ZM356,302.58c-12.51.67-22.26,7.78-27.88,20-5.23,11.41-3.88,22.47,5,31.88,19.24,20.32,38.17,41,58,60.72,26.64,26.59,53.95,52.5,81.07,78.61a24.41,24.41,0,0,0,7.44,4.88c18.06,7.47,38.37-3.13,43.32-22.51,2.28-8.91,1.33-17-5.44-24.06-17.16-17.93-33.73-36.44-51.23-54-29.49-29.63-59.52-58.73-89.33-88C371.53,304.72,364.77,302.85,356,302.58Zm139.18-277a55.52,55.52,0,0,0-5.8.8C466.55,31.5,454.57,60,472.5,78.76c15.65,16.39,31,33,47.09,49,27.77,27.6,55.9,54.85,84.11,82A25.28,25.28,0,0,0,615,215.57c15.14,3.61,28.78-1.9,36-13.9,7.62-12.66,6-26-4.68-38.5-1.62-1.89-3.22-3.83-5-5.6Q579.48,95.71,517.6,33.89C511.73,28,504.46,25.64,495.18,25.57Z" transform="translate(-293 105)"/>
  </g>
</svg>
