<svg id="f8356f71-c553-445b-93b1-6b23be5d1a7d" data-name="Layer 8" xmlns="http://www.w3.org/2000/svg" width="16.8" height="23.7" viewBox="0 0 16.8 23.7"><path d="M316.9,483.3s8.3-1.2,8.3-4-2.9-4.1-5.3-1.7A12,12,0,0,0,316.9,483.3Z" transform="translate(-308.5 -459.6)" opacity="0.15" style="isolation:isolate"/><path d="M309.2,467.9a24.7,24.7,0,0,0,3.4,8l4.4,6.6,4.3-6.8s3.3-5,3.3-7.8a7.8,7.8,0,0,0-7.7-7.4A7.4,7.4,0,0,0,309.2,467.9Z" transform="translate(-308.5 -459.6)" fill="#8048f3"/><path id="ada43362-77cf-440c-8833-06520cbc671f" data-name="Layer 7" d="M316.9,483.3l-.6-.8c-1.5-1.9-7.8-10.4-7.8-14.5a8,8,0,0,1,7.7-8.4h.7a8,8,0,0,1,8.4,7.7v.7c0,3.5-4.2,9.7-7.4,14Zm0-22.1a6.4,6.4,0,0,0-6.8,6.1v.7c0,2.9,4.4,9.6,6.8,12.7,2-2.7,6.8-9.5,6.8-12.7a6.4,6.4,0,0,0-6.1-6.8Z" transform="translate(-308.5 -459.6)" fill="#40247a"/><circle cx="8.4" cy="8.3" r="7" fill="#e6dafd" stroke="#40247a" stroke-miterlimit="10" stroke-width="0.75"/><path d="M316,474.9a12.8,12.8,0,0,0,2.7-.1.3.3,0,0,0,.3-.3v-2.7c0-.3,0-.3-.3-.3h-1.1c-.2,0-.2,0-.2-.1v-.3l.3-2.2a17,17,0,0,1,.4-2.2,7.6,7.6,0,0,1,.6-1.6,2,2,0,0,1,.6-.7l.6-.3c.2,0,.2,0,.2.2h0v9.7c-.1,1.2-5.9.9-5.9.3a7.1,7.1,0,0,0,.1-1.4,6.2,6.2,0,0,0,.1-1.3c.1-.8.1-1.5.2-2.3h-.2a2.2,2.2,0,0,1-1-.9.8.8,0,0,1-.2-.8c0-.4,0-2.6.1-3.2s0-.2.2-.2h0c.1,0,.1,0,.1.1s0,3.1.1,3.6a.2.2,0,0,0,.2.2c.2,0,.3-.1.3-.2v-3.7h.5s.1,1.8.1,2.6v1.1a.2.2,0,0,0,.2.2c.2,0,.3,0,.3-.2v-1.1c0-.8.1-1.7.1-2.5s.1-.2.3-.2.1.1.1.2,0,3.4.1,3.6.1.2.3.2a.2.2,0,0,0,.2-.2s.1-3.1,0-3.5,0-.2.2-.2h.2c.1.5.1,3.1.1,3.4a1.7,1.7,0,0,1-.7,1.4l-.6.3h-.1v.5c.1.6.1,1.2.2,1.8v1.2a10.9,10.9,0,0,1,.1,1.8h0" transform="translate(-308.5 -459.6)" fill="#20123d"/></svg>