<svg id="fb16be7b-2dff-40b2-9a16-b5cbf5479b40" data-name="Layer 9" xmlns="http://www.w3.org/2000/svg" width="21.2" height="21.2" viewBox="0 0 21.2 21.2"><circle cx="10.7" cy="10.3" r="6.9" fill="#fff"/><path d="M298,467.9a8.6,8.6,0,1,1-8.6-8.7A8.7,8.7,0,0,1,298,467.9Zm-9.6-3.3a2.2,2.2,0,0,0-2.3-.3,2.5,2.5,0,0,0-1.5,2.8,3.4,3.4,0,0,0,.6,1.5,10,10,0,0,0,1.4,1.5c.8.8,1.8,1.5,2.7,2.3h.1c0-.1,0-.1.1-.1l1-.9,2.3-2a14.7,14.7,0,0,0,1-1.3,3.1,3.1,0,0,0,.3-2.1c-.3-1.4-1.9-2.6-3.3-1.8s-1.4,1.7-1.4,1.8S288.9,464.9,288.4,464.6Z" transform="translate(-278.8 -457.2)" fill="#3796bd"/><circle cx="10.6" cy="10.6" r="8.6" fill="none" stroke="#cecece" stroke-miterlimit="10" stroke-opacity="0.46" stroke-width="4"/></svg>